<?xml version="1.0" encoding="utf-8"?>
<!-- Generator: Adobe Illustrator 17.1.0, SVG Export Plug-In . SVG Version: 6.00 Build 0)  -->
<!DOCTYPE svg PUBLIC "-//W3C//DTD SVG 1.1//EN" "http://www.w3.org/Graphics/SVG/1.1/DTD/svg11.dtd">
<svg id="ac-mapmarker" x="0px" y="0px" viewBox="0 0 50 50">
<path fill="#F95555" d="M33.2,14.5c-3.9-3.7-10.4-3.7-14.3,0c-3.6,3.3-3.9,9.7-1,13.5c0,0,6.9,9.3,7.3,9.9c0.4,0.5,1.3,0.6,1.7,0
  c0.4-0.6,7.3-9.9,7.3-9.9C37.1,24.2,36.8,17.8,33.2,14.5z"/>
<path fill="#1F1742" d="M26.1,25.1c-1.8,0-3.3-1.5-3.3-3.3c0-1.8,1.5-3.3,3.3-3.3s3.3,1.4,3.3,3.3S28,25.1,26.1,25.1L26.1,25.1z"/>
</svg>
